<svg width="72" height="78" viewBox="0 0 72 78" fill="none" xmlns="http://www.w3.org/2000/svg">
<g filter="url(#filter0_f_2076_3288)">
<circle cx="36" cy="42" r="21" fill="#060606" fill-opacity="0.2"/>
</g>
<circle cx="36" cy="29" r="29" fill="#1875F0"/>
<g clip-path="url(#clip0_2076_3288)">
<path d="M41.3787 18.8093L26.1629 25.1325C25.5868 25.3713 25.0912 25.7703 24.7347 26.2821C24.3783 26.7938 24.176 27.397 24.1517 28.0202C24.1274 28.6434 24.2822 29.2605 24.5977 29.7985C24.9133 30.3365 25.3763 30.7728 25.9321 31.0557L30.8476 33.6019L33.3631 38.5482C33.644 39.1094 34.0808 39.5776 34.6211 39.8969C35.1614 40.2161 35.7822 40.3728 36.4093 40.3483C37.2168 40.3178 37.9843 39.9889 38.5632 39.4252C38.8667 39.1213 39.1072 38.7606 39.2709 38.3636L45.6326 23.1094C45.8785 22.5134 45.9423 21.8579 45.8161 21.2257C45.6899 20.5935 45.3792 20.0128 44.9234 19.557C44.4675 19.1011 43.8868 18.7905 43.2546 18.6642C42.6224 18.538 41.9669 18.6019 41.371 18.8477L41.3787 18.8093ZM37.2709 37.4866C37.1912 37.6783 37.0583 37.8432 36.8879 37.9618C36.7175 38.0803 36.5167 38.1477 36.3093 38.1559C36.1107 38.1604 35.9147 38.1105 35.7425 38.0115C35.5702 37.9125 35.4284 37.7682 35.3324 37.5943L32.9862 33.0019L43.548 22.4401L37.2709 37.4866ZM31.4477 31.4634L26.8629 29.1711C26.689 29.075 26.5448 28.9332 26.4458 28.761C26.3468 28.5887 26.2969 28.3927 26.3014 28.1941C26.2978 28.0458 26.3246 27.8983 26.3802 27.7607C26.4358 27.6231 26.5189 27.4984 26.6245 27.3941C26.7278 27.2912 26.8507 27.2101 26.986 27.1556L42.0095 20.9016L31.4477 31.4634Z" fill="white"/>
</g>
<defs>
<filter id="filter0_f_2076_3288" x="0" y="6" width="72" height="72" filterUnits="userSpaceOnUse" color-interpolation-filters="sRGB">
<feFlood flood-opacity="0" result="BackgroundImageFix"/>
<feBlend mode="normal" in="SourceGraphic" in2="BackgroundImageFix" result="shape"/>
<feGaussianBlur stdDeviation="7.5" result="effect1_foregroundBlur_2076_3288"/>
</filter>
<clipPath id="clip0_2076_3288">
<rect width="26.1092" height="26.1092" fill="white" transform="translate(18.7627 27.2249) rotate(-45)"/>
</clipPath>
</defs>
</svg>
