<svg width="26" height="24" viewBox="0 0 26 24" fill="none" xmlns="http://www.w3.org/2000/svg">
<path d="M7.17421 1.98418C6.73845 2.27052 6.37562 2.65579 6.11485 3.10886C5.85412 3.56194 5.7027 4.07026 5.67285 4.59294V7.56383C5.7027 8.08651 5.85412 8.59483 6.11485 9.04791C6.37562 9.50103 6.73845 9.88625 7.17421 10.1726L10.2806 12.0141C11.1045 12.4928 11.7819 12.1 11.7819 11.1424V1.07571C11.7819 0.118155 11.1045 -0.274659 10.2806 0.204119L7.17421 1.98418Z" fill="#1875F0"/>
<path d="M6.85048 10.8163C6.39945 10.5904 5.90108 10.4727 5.39564 10.4727C4.8902 10.4727 4.39183 10.5904 3.9408 10.8163L1.45781 12.2251C1.03471 12.4989 0.682387 12.8673 0.429165 13.3006C0.175986 13.7339 0.0289746 14.2199 0 14.7197V18.1712C0 19.0869 0.657819 19.4626 1.45781 19.0048L9.87273 14.1915C10.6728 13.7336 10.6728 12.9882 9.87273 12.5303L6.85048 10.8163Z" fill="#1875F0"/>
<path d="M18.1351 1.98418C18.5709 2.27052 18.9337 2.65579 19.1944 3.10886C19.4552 3.56194 19.6066 4.07026 19.6364 4.59294V7.56383C19.6066 8.08651 19.4552 8.59483 19.1944 9.04791C18.9337 9.50103 18.5709 9.88625 18.1351 10.1726L15.0226 12.0141C14.1987 12.4928 13.5273 12.1 13.5273 11.1424V1.07571C13.5273 0.118155 14.1987 -0.274659 15.0226 0.204119L18.1351 1.98418Z" fill="#1875F0"/>
<path d="M18.1758 10.8163C18.6459 10.5904 19.1653 10.4727 19.692 10.4727C20.2188 10.4727 20.7383 10.5904 21.2084 10.8163L23.7963 12.2251C24.2365 12.4992 24.6027 12.8678 24.8656 13.3011C25.1284 13.7344 25.2805 14.2204 25.3095 14.7197V18.1712C25.3095 19.0869 24.6301 19.4626 23.7963 19.0048L15.0258 14.1915C14.1919 13.7336 14.1919 12.9882 15.0258 12.5303L18.1758 10.8163Z" fill="#1875F0"/>
<path d="M5.36947 23.6568C5.82076 23.8824 6.31939 24 6.82509 24C7.33084 24 7.82947 23.8824 8.28076 23.6568L10.7652 22.2441C11.1879 21.969 11.5395 21.5999 11.7918 21.1662C12.044 20.7325 12.19 20.2464 12.2179 19.7469V16.3C12.2179 15.3856 11.5657 15.0104 10.7652 15.4676L2.34547 20.2744C1.545 20.7317 1.545 21.4761 2.34547 21.9334L5.36947 23.6568Z" fill="#1875F0"/>
<path d="M12.6543 19.7497C12.6838 20.248 12.8361 20.7328 13.0989 21.1651C13.3617 21.5975 13.7277 21.9654 14.1675 22.2394L16.7555 23.657C17.2256 23.8825 17.745 24 18.2718 24C18.7986 24 19.318 23.8825 19.7881 23.657L22.938 21.9289C23.7718 21.472 23.7718 20.728 22.938 20.2711L14.1675 15.4675C13.3337 15.0106 12.6543 15.3855 12.6543 16.2993V19.7497Z" fill="#1875F0"/>
</svg>
