<svg width="38" height="38" viewBox="0 0 38 38" fill="none" xmlns="http://www.w3.org/2000/svg">
<circle cx="19" cy="19" r="19" fill="#CEE2FF"/>
<path d="M25.5918 25.592V24.041C25.5918 23.2183 25.2649 22.4293 24.6832 21.8475C24.1014 21.2658 23.3124 20.939 22.4897 20.939H16.2856C15.4629 20.939 14.6739 21.2658 14.0922 21.8475C13.5104 22.4293 13.1836 23.2183 13.1836 24.041V25.592" stroke="#1875F0" stroke-width="2" stroke-linecap="round" stroke-linejoin="round"/>
<path d="M19.3882 17.8369C21.1014 17.8369 22.4902 16.4481 22.4902 14.7349C22.4902 13.0216 21.1014 11.6328 19.3882 11.6328C17.675 11.6328 16.2861 13.0216 16.2861 14.7349C16.2861 16.4481 17.675 17.8369 19.3882 17.8369Z" stroke="#1875F0" stroke-width="2" stroke-linecap="round" stroke-linejoin="round"/>
</svg>
